<?xml version="1.0" encoding="UTF-8" standalone="no"?>
<!-- Created with Inkscape (http://www.inkscape.org/) -->

<svg
   width="256mm"
   height="256mm"
   viewBox="0 0 256 256"
   version="1.1"
   id="svg5"
   inkscape:version="1.2.2 (b0a8486, 2022-12-01)"
   sodipodi:docname="crypto_currency.svg"
   xmlns:inkscape="http://www.inkscape.org/namespaces/inkscape"
   xmlns:sodipodi="http://sodipodi.sourceforge.net/DTD/sodipodi-0.dtd"
   xmlns="http://www.w3.org/2000/svg"
   xmlns:svg="http://www.w3.org/2000/svg">
  <sodipodi:namedview
     id="namedview7"
     pagecolor="#ffffff"
     bordercolor="#000000"
     borderopacity="0.25"
     inkscape:showpageshadow="2"
     inkscape:pageopacity="0.0"
     inkscape:pagecheckerboard="0"
     inkscape:deskcolor="#d1d1d1"
     inkscape:document-units="mm"
     showgrid="false"
     inkscape:zoom="0.78127806"
     inkscape:cx="469.10315"
     inkscape:cy="667.49603"
     inkscape:window-width="1603"
     inkscape:window-height="1027"
     inkscape:window-x="2227"
     inkscape:window-y="62"
     inkscape:window-maximized="0"
     inkscape:current-layer="layer1" />
  <defs
     id="defs2" />
  <g
     inkscape:label="Layer 1"
     inkscape:groupmode="layer"
     id="layer1">
    <path
       id="path6516"
       style="fill:#75bbe3;fill-opacity:1;stroke:#4b5f58;stroke-width:0;stroke-dasharray:none;stroke-opacity:1"
       d="M 128.00001,9.5447144e-7 A 127.99976,128.00024 0 0 0 9.5444929e-7,127.99951 127.99976,128.00024 0 0 0 128.00001,256 127.99976,128.00024 0 0 0 256,127.99951 127.99976,128.00024 0 0 0 128.00001,9.5447144e-7 Z M 121.16859,9.4251656 h 14.13424 V 28.433267 c 0.0746,0.0057 0.14943,0.0057 0.22386,0.01145 44.41539,2.290661 84.23084,37.843123 91.45238,81.739593 -9.8663,1.79038 -19.7325,3.58048 -29.59885,5.37087 -1.8984,-10.53989 -6.24917,-20.63293 -12.65294,-29.220258 -11.47011,-16.03346 -30.08136,-25.745384 -49.42445,-27.670925 v 19.053462 c 21.23128,2.75496 39.63561,19.853129 43.19263,41.237171 -4.80815,0.8715 -9.61599,1.74293 -14.42416,2.61443 -2.64453,-7.64545 -7.03707,-17.69182 -15.1303,-22.588034 -4.09197,-3.045976 -8.77419,-4.937719 -13.63817,-5.793951 v 32.852445 c 0.0134,0.076 0.0279,0.15153 0.0365,0.2288 0.0515,0.36548 0.0441,0.73801 -0.0365,1.11442 v -1.28601 c -0.33739,-1.72855 -2.03423,-3.26653 -4.14994,-4.15982 -3.80305,-1.39485 -8.93152,-0.58242 -9.84426,4.13122 -0.10133,0.58437 -0.15084,1.22694 -0.14004,1.93296 V 93.515476 c -10.4673,2.278809 -19.9794,8.978764 -24.442985,19.102794 -9.572952,18.50928 1.204577,43.64112 21.359135,49.18793 1.01899,0.35077 2.04898,0.63287 3.08385,0.8728 v -32.66605 c -0.0824,-0.4451 -0.0934,-0.90978 0,-1.3945 v 1.3432 c 0.9779,5.59712 14.50556,7.64467 14.13424,-1.96056 v 34.7785 c 13.8288,-2.86361 26.00369,-14.00124 28.15701,-28.43425 5.00959,0.91321 10.01914,1.82645 15.02873,2.73967 -3.46782,21.25723 -22.04752,38.48561 -43.18574,41.21349 v 19.15604 c 30.24377,-2.47626 57.20038,-26.80729 62.06655,-56.95924 9.8663,1.79909 19.7325,3.59843 29.59885,5.39752 -4.65731,26.31438 -20.54027,50.32655 -42.80506,65.07075 -14.43993,9.97426 -31.50523,15.44968 -48.86034,16.53078 v 19.08108 H 121.16859 V 227.4178 C 101.6658,225.94872 82.59479,218.92467 67.275672,206.44321 35.08766,181.93143 21.000553,136.84045 33.523929,98.394625 44.927485,60.042145 81.470808,31.281492 121.16859,28.458916 Z m 0,49.2303384 c -7.82981,0.791671 -15.52492,2.916223 -22.657964,6.489229 -28.926976,13.239089 -45.297704,47.846937 -37.625537,78.650807 5.966496,28.43216 31.69128,50.62409 60.283501,53.59728 V 178.21113 C 97.313212,174.74653 77.396555,152.49146 77.97595,128.0005 77.396593,103.51042 97.314401,81.271495 121.16859,77.805628 Z" />
  </g>
</svg>
